<?xml version="1.0" encoding="utf-8"?>
<!-- Generator: Adobe Illustrator 27.5.0, SVG Export Plug-In . SVG Version: 6.00 Build 0)  -->
<svg version="1.1" id="Capa_2" xmlns="http://www.w3.org/2000/svg" xmlns:xlink="http://www.w3.org/1999/xlink" x="0px" y="0px"
	 viewBox="0 0 2122 2122" style="enable-background:new 0 0 2122 2122;" xml:space="preserve">
<path style="fill:#FCDFD8;" d="M1909.188,1050.521c-59.141-100.159-167.547-168.013-282.303-181.537
	c37.185-22.741,71.005-50.302,98.994-83.922c62.847-75.49,84.691-187.237,42.941-276.295
	c-97.626-36.115-209.754-26.797-302.247,20.613c1.258-7.332,2.293-14.718,3.088-22.154
	c10.464-97.898-33.198-202.976-117.153-253.613c-109.426,26.653-203.525,107.041-251.48,209.206
	c-6.468-21.897-14.778-43.191-25.24-63.611c-44.013-85.901-135.45-147.816-230.168-142.941
	c-87.293,97.18-117.092,244.026-76.679,369.192c-42.337-42.252-90.797-77.494-146.288-98.776
	c-91.467-35.081-203.606-19.337-273.649,49.448c-2.473,126.82,64.764,252.083,169.549,322.242
	c-45.162,0.661-89.817,7.538-132.264,23.212c-91.895,33.932-166.212,119.852-174.156,217.99
	c56.009,67.359,136.735,112.095,222.531,127.852c-8.871,7.875-17.379,16.194-25.474,24.989
	c-66.503,72.253-93.845,182.768-56.551,273.805c124.936,53.455,278.373,30.842,383.694-55.336c2.51-2.054,4.99-4.141,7.444-6.256
	c-13.431,38.687-21.782,78.808-22.831,119.891c-2.513,98.43,49.503,199.587,137.274,243.187
	c86.344-28.685,159.887-91.488,205.813-170.298c3.955,9.069,8.272,17.994,12.975,26.75
	c47.259,87.979,142.948,150.096,240.595,142.995c76.567-89.175,107.424-216.323,84.933-332.628
	c25.779,20.479,53.716,37.932,84.022,51.166c89.794,39.213,202.526,28.596,275.596-36.928
	c7.329-113.383-41.277-228.065-124.455-304.549c21.727-0.267,43.415-2.333,64.919-6.521
	C1798.725,1218.981,1885.745,1146.119,1909.188,1050.521z M1256.686,994.376c-1.594-4.666-3.344-9.276-5.242-13.82
	c11.893-2.517,23.747-4.825,35.574-7.019C1276.81,980.328,1266.706,987.288,1256.686,994.376z M1215.731,922.258
	c-2.976-3.486-6.055-6.863-9.231-10.122c5.3-5.214,10.618-10.384,15.944-15.528C1220.148,905.14,1217.917,913.693,1215.731,922.258z
	 M1105.144,857.504c-6.597-1.323-13.232-2.311-19.88-2.974c2.628-12.262,5.316-24.476,7.974-36.699
	C1096.967,831.12,1100.957,844.339,1105.144,857.504z M947.386,889.815c-7.992-14.046-15.739-28.122-23.456-42.188
	c12.441,11.312,25.188,22.271,38.153,32.971C957.061,883.455,952.157,886.529,947.386,889.815z M874.723,983.343
	c-11.218-3.872-22.337-7.857-33.41-11.888c13.026-0.423,26.05-1.067,39.07-1.875C878.345,974.052,876.456,978.641,874.723,983.343z
	 M864.125,1091.073c0.329,2.126,0.686,4.248,1.078,6.362c1.71,9.23,3.964,18.1,6.711,26.605c-16.721,2.394-33.364,4.491-49.983,6.54
	C836.327,1117.789,850.353,1104.573,864.125,1091.073z M919.06,1201.394c5.323,5.287,10.932,10.228,16.792,14.813
	c-11.835,13.456-23.729,26.77-35.533,40.208C906.962,1238.229,913.153,1219.863,919.06,1201.394z M1184.309,1219.581
	c1.09,2.17,2.176,4.34,3.258,6.51c-1.962-1.568-3.93-3.13-5.901-4.686C1182.551,1220.804,1183.432,1220.196,1184.309,1219.581z
	 M1254.688,1131.425c2.142-5.405,4.063-10.961,5.741-16.67c9.913,5.545,19.776,11.124,29.647,16.687
	C1278.286,1131.267,1266.488,1131.275,1254.688,1131.425z"/>
<path style="fill:#FEEEEA;" d="M1637.699,1244.216c-75.373,0.926-151.216-19.813-221.508-48.846
	c-44.899-18.545-85.581-41.088-126.115-63.93c-11.79-0.174-23.588-0.166-35.388-0.016c2.142-5.405,4.063-10.961,5.741-16.67
	c1.333-4.534,2.514-9.162,3.536-13.885c7.691-35.553,4.33-72.507-7.278-106.494c-1.594-4.666-3.344-9.276-5.242-13.819
	c11.893-2.517,23.746-4.825,35.573-7.019c63.358-11.751,125.973-20.197,190.044-39.624c51.985-15.762,103.513-36.609,149.824-64.93
	c37.185-22.742,71.005-50.303,98.994-83.922c62.847-75.491,84.691-187.237,42.941-276.296
	c-97.626-36.115-209.754-26.797-302.247,20.613c-15.305,89.186-63.886,170.489-121.323,240.775
	c-38.452,47.055-80.888,85.97-122.806,126.454c-2.295,8.532-4.527,17.084-6.713,25.65c-2.976-3.486-6.055-6.863-9.231-10.122
	c-12.176-12.492-25.778-23.244-40.458-31.703c-19.358-11.155-39.934-18.726-60.899-22.93c-6.597-1.323-13.232-2.311-19.88-2.974
	c2.628-12.262,5.317-24.476,7.974-36.698c9.554-43.938,18.707-87.989,23.216-134.78c7.092-73.601,5.315-150.013-15.426-220.232
	c-6.468-21.897-14.778-43.191-25.24-63.611c-44.013-85.901-135.45-147.815-230.167-142.941
	c-87.294,97.18-117.093,244.026-76.679,369.193c27.449,27.393,52.324,57.733,74.872,89.126
	c31.161,43.386,55.497,88.166,80.118,133.042c12.441,11.312,25.188,22.271,38.153,32.971c-5.022,2.858-9.927,5.931-14.697,9.218
	c-28.246,19.46-51.773,46.36-67.004,79.766c-2.039,4.472-3.928,9.061-5.661,13.763c-11.219-3.871-22.337-7.857-33.41-11.888
	c-54.112-19.698-107.14-40.458-165.555-54.157c-51.298-12.03-104.596-19.697-157.206-18.927
	c-45.162,0.661-89.817,7.539-132.264,23.212c-91.895,33.932-166.212,119.852-174.156,217.99
	c56.009,67.36,136.735,112.095,222.531,127.853c64.008-56.821,146.947-90.422,230.397-111.232
	c53.096-13.241,104.858-19.201,156.871-25.615c14.395-12.79,28.422-26.007,42.193-39.507c0.329,2.127,0.686,4.249,1.078,6.362
	c1.711,9.229,3.964,18.1,6.711,26.604c9.935,30.756,26.355,56.702,47.147,77.354c5.323,5.287,10.931,10.229,16.792,14.814
	c-11.835,13.456-23.73,26.77-35.533,40.208c-26.597,30.282-52.727,61.207-76.634,95.867
	c-32.512,47.133-61.159,98.343-79.907,152.346c-13.43,38.687-21.782,78.808-22.83,119.89
	c-2.513,98.43,49.503,199.587,137.274,243.188c86.344-28.685,159.887-91.488,205.814-170.298
	c22.647-38.861,38.58-81.613,46.018-126.088c12.642-75.582,2.33-153.607-19.096-227.159c-8.456-29.029-18.603-57.475-29.764-85.549
	c41.835,0.067,84.67-12.921,120.473-37.209c0.885-0.601,1.766-1.21,2.643-1.824c1.09,2.17,2.176,4.34,3.258,6.511
	c23.504,18.781,46.327,38.406,68.005,59.394c55.427,53.665,103.507,117.028,130.55,190.138
	c7.082,19.146,12.539,38.864,16.415,58.903c25.779,20.48,53.716,37.932,84.022,51.167c89.794,39.213,202.526,28.595,275.596-36.928
	C1769.484,1435.383,1720.877,1320.7,1637.699,1244.216z"/>
<path style="fill:#FBC26F;" d="M1215.731,922.258c-2.976-3.486-6.055-6.863-9.231-10.122
	c-12.176-12.492-25.778-23.243-40.458-31.702c-19.358-11.156-39.934-18.726-60.899-22.931c-6.597-1.323-13.232-2.311-19.88-2.974
	c-42.829-4.27-86.187,5.019-123.18,26.068c-5.022,2.857-9.927,5.932-14.697,9.217c-28.245,19.46-51.773,46.36-67.003,79.766
	c-2.039,4.472-3.928,9.061-5.661,13.763c-7.664,20.798-12.252,43.83-13.02,68.906c-0.398,12.993,0.441,26.013,2.422,38.823
	c0.329,2.127,0.686,4.249,1.078,6.362c1.71,9.23,3.964,18.1,6.711,26.604c9.935,30.756,26.355,56.702,47.146,77.354
	c5.323,5.287,10.932,10.229,16.792,14.814c34.971,27.359,78.878,42.071,124.18,42.405l1.162,0.003
	c41.835,0.066,84.67-12.922,120.473-37.21c0.885-0.601,1.766-1.21,2.643-1.824c30.541-21.406,55.713-51.167,70.379-88.156
	c2.142-5.404,4.063-10.961,5.741-16.67c1.333-4.534,2.514-9.162,3.536-13.885c7.691-35.553,4.33-72.507-7.278-106.494
	c-1.594-4.666-3.344-9.276-5.242-13.819C1242.548,959.257,1230.395,939.437,1215.731,922.258z"/>
<path style="fill:#802624;" d="M1691.465,1563.866c-75.939,28.295-157.618,6.546-226.343-30.731
	c-2.029-1.101-3.774,9.519-1.495,10.755c69.034,37.445,150.818,59.634,227.178,31.182
	C1693.822,1573.947,1692.479,1563.488,1691.465,1563.866z"/>
<path style="fill:#802624;" d="M1737.736,1542.625c-1.284,6.102,6.196,10.686,7.72,3.443c13.909-66.081-4.682-133.12-43.719-187.337
	c-12.288-17.065-26.356-32.785-41.591-47.262c-4.601-4.372-8.427,5.893-4.702,9.433
	C1715.472,1377.943,1755.419,1458.617,1737.736,1542.625z"/>
<path style="fill:#F8BFB2;" d="M1105.211,1706.658c36.941,68.772,111.74,117.328,188.068,111.777
	c23.346-27.19,41.22-58.909,53.339-92.866c-3.028,2.422-6.139,4.75-9.477,6.828c-22.248,13.851-49.89,22.341-76.171,19.952
	c-24.235-2.204-50.179-16.799-55.141-42.674c-4.491-23.417,5.357-46.474,11.783-68.54c1.509-5.182,2.905-10.416,3.83-15.74
	c0.782-4.498,1.034-6.909,0.558-12.457l-0.018-0.241l-0.016-0.063c-0.115-0.513-0.223-1.027-0.357-1.536
	c-0.232-0.88-0.519-1.736-0.823-2.593l-0.002-0.005l-0.62-1.15l-1.204-1.788c-3.131-3.507-6.053-5.161-10.055-6.22
	c-13.143-3.474-27.526-0.886-40.887-0.329c-14.521,0.604-28.35-1.152-40.99-8.92c-6.684-4.109-12.519-9.268-17.61-15.116
	c-5.055,28.386-13.565,56.042-25.064,82.403C1089.847,1674.367,1096.726,1690.86,1105.211,1706.658z"/>
<path style="fill:#F8BFB2;" d="M1268.071,1058.002c0.01,0.532,0.016,1.065,0.022,1.597l0.005,0.396
	c0.003,0.482,0.005,0.964,0.005,1.446l0.001,0.566l-0.008,1.338l-0.006,0.66l-0.022,1.332l-0.013,0.646l-0.034,1.278l-0.023,0.755
	l-0.044,1.184l-0.033,0.806l-0.055,1.166l-0.044,0.858l-0.064,1.111l-0.055,0.874l-0.003,0.058
	c57.732,29.444,109.433,63.99,170.826,89.348c73.659,30.424,154.811,49.652,232.987,34.429
	c78.176-15.224,148.959-74.492,168.029-152.253c-6.762-11.451-14.334-22.367-22.582-32.731c2.586,18.682-0.655,37.739-11.125,54.753
	c-16.636,27.034-45.01,45.065-74.097,55.981c-28.864,10.833-60.472,15.144-91.192,14.121c-32.97-1.098-65.876-9.081-93.264-28.267
	c-12.708-8.902-22.303-19.424-30.814-32.367c-6.772-10.299-12.179-20.334-21.806-27.612c-3.568-2.697-9.386-5.125-14.911-5.799
	c-5.407-0.66-11.531-0.245-17.111,0.321c-12.508,1.267-25.072,4.669-37.37,8.358c-26.778,8.031-52.988,18.26-80.744,22.47
	c-27.064,4.106-54.168-0.086-75.964-17.611l-0.517-0.422l0.022,0.982L1268.071,1058.002z"/>
<path style="fill:#802624;" d="M1256.718,330.366c18.399-11.184,37.884-20.457,58.163-27.69c3.686-1.315,3.345-12.434-0.957-10.899
	c-74.797,26.675-137.628,81.734-177.879,149.782c-10.378,17.543-19.243,35.96-26.564,54.978c0.862,4.133,1.665,8.282,2.414,12.444
	C1138.62,435.572,1189.778,371.062,1256.718,330.366z"/>
<path style="fill:#F8BFB2;" d="M833.331,1244.021c-13.937,24.647-35.806,44.12-60.121,58.079
	c-25.202,14.468-52.35,23.266-81.202,26.152c-16.578,1.659-33.512,3.052-49.527,7.938c-7.409,2.26-14.545,5.078-20.649,9.815
	c-2.342,1.817-4.64,3.967-6.133,6.546c-1.184,2.048-1.562,4.002-1.43,5.78c0.397,5.355,3.254,11.505,5.991,16.582
	c3.524,6.541,7.706,13.001,9.956,20.138c4.056,12.863,2.834,26.838-2.511,39.123c-11.323,26.026-37.912,43.319-62.809,54.356
	c-24.965,11.067-54.614,18.663-82.013,14.515c-16.582-2.51-31.686-10.878-42.58-23.68c-12.262-14.409-17.919-33.871-19.652-52.448
	c-0.661-7.085-0.74-14.166-0.354-21.215c-8.783,35.509-7.634,73.124,6.095,107.012c88.781,38.401,198.06,22.736,273.267-38.309
	c42.21-34.262,73.338-80.723,96.446-130.079c15.582-33.281,27.711-68.009,38.725-103.123
	C834.336,1242.143,833.857,1243.091,833.331,1244.021z"/>
<path style="fill:#F8BFB2;" d="M720.031,630.653c-80.458-60.169-194.379-71.884-284.84-28.404
	c-12.845,35.698-12.497,74.737-1.941,111.184c-0.688-7.292-0.896-14.636-0.5-22.007c1.037-19.329,6.105-39.738,18.226-55.182
	c10.77-13.722,26.085-23.021,43.171-26.31c28.232-5.435,59.278,1.213,85.61,11.652c26.26,10.411,54.531,27.237,67.333,53.747
	c6.043,12.514,7.883,26.951,4.204,40.453c-2.042,7.491-6.111,14.362-9.498,21.287c-2.629,5.377-5.34,11.87-5.532,17.438
	c-0.064,1.848,0.408,3.859,1.719,5.932c1.652,2.612,4.123,4.746,6.625,6.533c6.52,4.657,14.033,7.284,21.806,9.32
	c16.801,4.401,34.411,5.145,51.665,6.178c30.026,1.798,58.528,9.795,85.245,23.75c25.777,13.464,49.244,32.746,64.699,57.719
	c0.583,0.941,1.117,1.904,1.668,2.86c-12.853-35.944-26.846-71.441-44.36-105.297C799.356,711.298,765.188,664.423,720.031,630.653z
	"/>
<path style="fill:#F8BFB2;" d="M1258.98,349.007c19.421-3.302,40.817-2.844,58.865,5.728c16.035,7.617,28.698,20.736,35.791,36.961
	c11.721,26.809,12.079,59.118,7.616,87.597c-4.451,28.402-14.819,60.236-38.268,78.885c-11.068,8.804-24.988,13.864-39.215,13.237
	c-7.894-0.348-15.627-2.849-23.261-4.658c-5.927-1.404-12.98-2.641-18.55-1.584c-1.849,0.351-3.739,1.269-5.503,3.036
	c-2.223,2.225-3.787,5.156-5.001,8.04c-3.162,7.517-4.085,15.563-4.365,23.736c-0.605,17.665,2.603,35.313,5.444,52.673
	c4.943,30.211,3.391,60.297-4.476,89.946c-7.59,28.606-21.472,56.222-42.8,77.161c-0.805,0.79-1.64,1.537-2.465,2.297
	c32.802-20.814,64.905-42.659,94.589-67.632c44.022-37.035,82.899-81.458,106.304-133.853
	c41.701-93.354,27.805-209.071-35.63-289.13c-38.316-4.753-76.994,4.34-110.808,22.986
	C1244.33,352.118,1251.574,350.266,1258.98,349.007z"/>
<path style="fill:#802624;" d="M1341.446,280.889c67.598,42.792,104.273,121.887,102.315,200.817
	c-2.283,92.015-49.08,176.306-105.701,246.237c-32.971,40.722-70.08,77.885-107.771,114.198c-2.874,2.769-1.252,13.657,2.682,9.867
	c68.979-66.458,137.307-137.186,179.482-224.335c38.302-79.143,52.569-172.087,17.299-254.929
	c-17.817-41.848-47.436-78.174-85.958-102.559C1339.882,267.708,1337.854,278.615,1341.446,280.889z"/>
<path style="fill:#802624;" d="M1435.666,913.831c-52.914,13.85-107.333,20.709-161.83,24.308
	c-4.812,0.318-5.222,11.508-0.659,11.206c95.46-6.304,191.938-23.122,277.454-67.944c76.6-40.149,141.285-101.486,178.99-179.905
	c21.335-44.372,33.64-93.106,34.571-142.388c0.128-6.798-6.81-7.33-6.94-0.408c-1.618,85.685-39.031,168.409-97.979,229.993
	C1598.994,851.669,1519.343,891.929,1435.666,913.831z"/>
<path style="fill:#802624;" d="M1875.732,1051.639c2.858,3.857,5.371-6.724,3.303-9.515
	c-40.025-54.018-94.467-96.973-156.403-123.17c-17.498-7.402-35.551-13.427-53.963-18.103c-3.278-0.833-4.595,10.207-0.659,11.206
	C1750.729,933.065,1824.943,983.094,1875.732,1051.639z"/>
<path style="fill:#802624;" d="M1509.925,539.419c77.234-30.181,163.927-35.001,243.434-10.685
	c3.12,0.954,4.582-10.006,0.659-11.206c-79.982-24.461-167.23-19.349-244.898,11
	C1505.752,529.846,1506.078,540.923,1509.925,539.419z"/>
<path style="fill:#802624;" d="M1861.776,1122.543c2.428-2.105,1.127-12.189-0.399-10.867
	c-56.257,48.785-125.882,83.937-200.017,94.307c-39.844,5.573-79.246,2.631-118.47-5.784
	c-39.568-8.489-78.569-19.839-116.471-34.024c-43.048-16.11-84.615-36.033-123.911-59.889c-2.374-1.441-4.206,9.206-1.67,10.745
	c69.25,42.04,145.528,71.807,224.262,90.495c40.313,9.569,80.702,15.306,122.147,11.262c37.188-3.629,73.641-13.751,107.865-28.639
	C1793.894,1173.279,1829.844,1150.234,1861.776,1122.543z"/>
<path style="fill:#802624;" d="M1182.184,1257.617c-3.996-2.459-17.673,0.786-10.55,5.169
	c63.411,39.021,118.191,92.752,155.66,157.298c39.024,67.226,56.932,144.944,49.664,222.473
	c-4.376,46.689-17.709,92.08-38.673,133.992c-2.426,4.849,12.171,6.374,14.387,1.943c37.521-75.013,50.171-161.383,33.555-243.77
	c-14.86-73.675-52.417-140.852-103.512-195.544C1253.109,1307.491,1219.089,1280.328,1182.184,1257.617z"/>
<path style="fill:#802624;" d="M757.705,1590.447c0.612-41.03,9.037-81.264,24.471-119.265
	c16.145-39.751,38.984-76.349,64.662-110.593c29.442-39.264,62.603-75.523,95.856-111.548c2.457-2.661,3.354-6.621,2.254-10.124
	c-0.716-2.277-3.642-5.76-6.143-3.051c-60.81,65.88-123.101,133.812-159.685,216.802c-34.694,78.699-39.932,167.404-14.669,249.673
	c13.856,45.118,36.58,87.318,67.199,123.27c2.322,2.727,5.357,0.063,6.459-2.309c1.451-3.124,1.235-7.634-1.051-10.318
	C784.823,1751.652,756.504,1670.924,757.705,1590.447z"/>
<path style="fill:#802624;" d="M1104.61,1520.584c1.13-6.095-6.371-10.721-7.719-3.444c-15.71,84.81-49.314,166.06-106.548,231.4
	c-17.126,19.551-36.073,37.369-56.428,53.52c-3.995,3.171-1.395,13.854,3.564,9.919c71.097-56.414,121.447-132.852,149.1-219.014
	C1094.186,1569.264,1100.077,1545.053,1104.61,1520.584z"/>
<path style="fill:#802624;" d="M602.74,557.963c88.544,23.408,160.772,87.521,215.66,158.457
	c32.955,42.591,60.81,88.876,85.96,136.425c3.071,5.806,7.055-3.952,5.099-7.651c-44.534-84.194-98.354-166.782-172.792-227.628
	c-68.049-55.625-154.998-91.794-243.811-75.333c-48.128,8.92-92.492,32.842-126.766,67.719c-2.831,2.881-1.092,13.766,2.738,9.871
	C429.74,557.839,519.29,535.901,602.74,557.963z"/>
<path style="fill:#802624;" d="M469.395,1235.728c-69.308-7.564-138.849-29.926-189.811-79.424
	c-12.596-12.235-23.792-25.799-33.648-40.323c-1.526-2.25-3.73,0.26-4.418,1.757c-1.103,2.402-0.784,5.58,0.676,7.732
	c37.936,55.902,95.375,91.891,160.042,109.314c19.306,5.202,38.992,8.799,58.824,11.254c2.556,0.316,5.115,0.615,7.676,0.895
	c3.007,0.328,4.288-5.254,3.192-8.666C471.486,1236.891,470.656,1235.866,469.395,1235.728z"/>
<path style="fill:#802624;" d="M245.135,1070.509c37.301-70.686,112.258-109.048,186.231-130.062
	c42.065-11.95,86.224-22.209,130.217-19.805c43.699,2.387,87.323,14.173,129.003,26.935c45.741,14.005,90.296,31.7,133.26,52.727
	c4.524,2.214,6.398-8.762,2.44-10.7c-39.5-19.332-80.342-35.86-122.227-49.271c-41.981-13.442-85.722-25.664-129.708-29.966
	c-45.111-4.412-89.751,4.642-133.187,16.159c-40.62,10.771-80.495,25.461-116.137,48.028
	c-35.452,22.447-65.755,52.692-85.418,89.954C237.311,1068.861,241.709,1077.002,245.135,1070.509z"/>
<path style="fill:#802624;" d="M674.188,1188.996c45.647-14.996,92.425-26.22,139.401-36.161c4.869-1.031,4.193-12.124-1.454-10.929
	c-85.182,18.027-170.56,40.478-247.787,81.737c-68.967,36.845-130.043,90.229-167.634,159.558
	c-20.104,37.078-32.489,78.22-34.3,120.446c-0.296,6.914,7.561,7.434,7.86,0.462c3.215-74.976,41.645-143.35,94.004-195.478
	C522.227,1250.938,597.247,1214.272,674.188,1188.996z"/>
<path style="fill:#802624;" d="M881.974,287.531c35.917,8.385,69.5,25.24,97.322,49.515c26.933,23.498,48.193,52.8,64.463,84.504
	c33.357,65,47.442,139.523,49.076,212.13c1.262,56.13-5.96,112.308-20.138,166.587c-1.445,5.534,4.243,10.589,6.134,3.35
	c22.9-87.672,27.268-179.988,10.231-269.093c-13.893-72.665-42.942-146.758-97.145-198.939
	c-30.529-29.39-68.035-49.63-109.283-59.26C878.541,275.371,877.445,286.474,881.974,287.531z"/>
<path style="fill:#802624;" d="M839.617,314.661c1.916-2.793-7.819-4.146-9.759-1.318c-45.585,66.464-58.425,150.771-48.124,229.602
	c3.206,24.529,8.708,48.688,16.069,72.297c0.941,3.02,10.938,2.463,9.76-1.319c-24.427-78.341-27.447-165.92,2.551-243.231
	C817.776,350.946,827.637,332.129,839.617,314.661z"/>
<path style="fill:#802624;" d="M604.477,888.679c2.717,0.931,8.289,1.062,10.386-1.335c2.242-2.561-0.202-4.225-2.723-5.089
	c-76.643-26.268-141.397-82.204-185.239-149.62c-12.991-19.977-24.169-41.069-33.526-62.981c-1.928-4.515-16.887-3.287-14.639,1.978
	c33.127,77.574,90.207,145.341,163.106,188.286C561.698,871.616,582.679,881.208,604.477,888.679z"/>
<path style="fill:#802624;" d="M1249.063,1014.838c-7.099-33.904-24.339-64.517-48.035-88.885
	c-31.956-32.86-75.656-54.365-122.085-57.268c-41.009-2.565-82.99,8.556-117.569,30.69c-35.043,22.43-61.168,56.184-73.787,95.867
	c-14.39,45.251-10.917,95.42,10.605,137.82c2.907,5.727,11.519,0.683,8.616-5.036c-36.561-72.029-15.493-165.162,49.715-213.234
	c31.22-23.015,69.689-35.938,108.47-36.465c38.772-0.527,76.327,12.14,107.32,35.352c14.546,10.894,27.4,23.975,38.017,38.643
	c14.045,19.403,24.174,41.586,29.112,65.168C1240.756,1023.771,1250.377,1021.113,1249.063,1014.838z"/>
<path style="fill:#FEE2C1;" d="M915.686,1073.115c7.107,2.251,15.051-0.074,21.101-4.431c6.05-4.357,10.521-10.526,14.648-16.734
	c17.945-26.989,46.871-47.405,74.96-62.825c26.964-14.802,74.656-25.877,74.774-64.645c0.127-41.901-61.607-32.308-86.574-24.565
	c-27.899,8.651-53.284,25.376-72.578,47.269c-1.652,1.875-3.258,3.786-4.814,5.733c-20.785,25.993-33.183,58.587-34.927,91.822
	C901.694,1055.805,903.331,1069.202,915.686,1073.115z"/>
<path style="fill:#802624;" d="M1078.65,1225.146c52.169-2.141,100.056-31.447,125.757-76.959
	c13.731-24.316,20.469-52.548,16.946-80.396c-0.795-6.285-10.783-6.364-9.978,0c6.014,47.539-18.958,94.512-57.361,121.79
	c-40.871,29.031-94.051,32.459-140.251,14.697c-6.294-2.42-12.419-5.239-18.333-8.432c-18.134-9.792-34.269-23.119-47.089-39.362
	c-3.975-5.038-10.993,2.066-7.055,7.055c9.5,12.037,20.819,22.506,33.38,31.236
	C1004.797,1215.718,1042.089,1226.646,1078.65,1225.146z"/>
<path style="fill:#802624;" d="M1290.709,1837.406c-80.614-19.066-155.394-69.293-199.763-139.752
	c-1.004-1.595-2.176,3.507-2.22,3.796c-0.326,2.173-0.499,5.016,0.724,6.959c34.728,55.149,88.148,97.594,147.89,122.938
	c17.055,7.235,34.683,13.001,52.71,17.265C1291.828,1849.032,1293.433,1838.05,1290.709,1837.406z"/>
<path style="fill:#802624;" d="M706.848,1486.247c-58.421,40.792-129.926,61.786-200.819,64.278
	c-19.887,0.699-39.791-0.151-59.545-2.545c-2.141-0.259-3.173,10.901-0.659,11.206c70.828,8.584,144.581-2.707,209.453-32.491
	c18.109-8.315,35.456-18.183,51.794-29.592C709.457,1495.438,708.271,1485.253,706.848,1486.247z"/>
<path style="fill:#802624;" d="M1138.767,1058.111l-0.095,0.247l-0.512,1.138c-1.422,3.052-3.227,5.9-4.778,8.885
	c-0.365,0.701-0.795,1.356-1.18,2.045c-0.61,1.09-0.943,2.154-1.001,3.391l-0.016,0.286c-0.473,1.256-1.598,2.862-1.474,4.576
	c0.138,1.92,1.43,3.198,3.352,3.352c1.936,0.155,3.889-1.074,5.56-2.152c0.674-0.131,1.329-0.336,1.937-0.692
	c0.976-0.571,1.708-1.446,2.466-2.261c1.391-1.496,2.704-3.081,3.849-4.779c2.012-2.984,3.434-6.547,4.705-9.89
	c1.375-3.62,2.11-7.316,2.379-11.067c0.219-3.059,0.129-6.154-0.18-9.274c-0.269-2.723-2.136-5.067-5.067-5.067
	c-3.03,0-4.714,2.34-5.067,5.067c0.065-0.506-0.047,0.287-0.063,0.38c-0.082,0.48-0.161,0.959-0.253,1.437
	c-0.147,0.769-0.337,1.523-0.547,2.276c-0.449,1.611-0.979,3.203-1.47,4.802c-0.313,1.02-0.666,2.027-1.019,3.033
	c-0.205,0.584-0.41,1.168-0.607,1.754C1139.399,1056.444,1139.085,1057.277,1138.767,1058.111z"/>
<path style="fill:#802624;" d="M1167.923,1128.346c-1.223,1.564-2.212,3.309-3.459,4.836c-0.732,0.896-1.62,1.784-2.222,2.771
	c-0.531,0.87-0.916,1.87-1.386,2.777c-1.697,3.276-3.333,6.58-5.384,9.656c-0.456,0.685-0.968,1.333-1.422,2.019l0.158-0.193
	l-0.412,0.515l-0.697,0.84c-1.112,1.3-2.31,2.542-3.557,3.714c-0.566,0.531-1.152,1.037-1.749,1.533l-0.193,0.154l-0.999,0.712
	c-1.439,0.984-2.955,1.837-4.526,2.591c-2.125,1.022-2.85,3.965-1.961,5.987c0.878,1.997,3.398,3.657,5.656,2.776
	c3.88-1.515,7.338-3.441,10.607-6.021c3.046-2.404,5.512-5.366,7.761-8.515c2.393-3.351,4.4-6.968,5.992-10.761
	c0.945-2.252,1.64-4.197,1.867-6.658c0.208-2.257,0.641-4.476,0.717-6.748C1172.788,1128.078,1169.455,1126.387,1167.923,1128.346z"
	/>
<path style="fill:#802624;" d="M1003.121,943.305l0.621-0.493c0.478-0.19,1.887-0.912,1.845-0.861
	c1.012-0.632,1.945-1.572,2.8-2.383c0.814-0.773,1.649-1.55,2.539-2.236l0.038-0.03l0.532-0.318l1.098-0.767
	c1.824-1.319,3.682-2.605,5.63-3.737c0.879-0.511,1.776-0.99,2.687-1.441c0.506-0.251,1.018-0.488,1.532-0.724l0.338-0.157
	l0.209-0.066c3.71-1.391,8.596-2.679,11.887-3.135c3.667-0.508,7.832-0.287,11.635,0.667c7.351,1.845,10.416-9.244,3.13-11.351
	c-10.086-2.916-21.1-3.039-30.937,0.814c-5.234,2.049-10.162,4.647-14.409,8.374c-2.061,1.807-3.844,4.109-5.493,6.291
	c-1.838,2.43-2.166,4.962-2.847,7.382C994.714,943.542,999.993,945.893,1003.121,943.305z"/>
<polygon style="fill:#802624;" points="1011.353,1039.275 1011.831,1038.996 1011.822,1038.999 "/>
<path style="fill:#802624;" d="M988.623,1043.481l0.003,1.107c0.066,2.688,2.376,4.082,4.835,3.683l0.273-0.043
	c2.015,0.16,3.78-0.425,5.521-1.681c1.172-0.847,2.386-1.597,3.598-2.383c2.386-1.547,4.708-3.124,7.266-4.388l1.234-0.501
	c-0.168,0.052-0.128-0.044,0.453-0.269l0.016-0.006l0.053-0.04l-0.044,0.037l0.887-0.332c1.298-0.468,2.582-0.977,3.894-1.403
	c0.577-0.187,1.127-0.37,1.689-0.608l0.358-0.151l0.002,0c0.678-0.253,1.349-0.526,2.038-0.751c1.352-0.441,2.752-0.732,4.15-0.98
	c4.635-0.821,4.592-8.462,0-9.32c-3.324-0.622-7.055-1.293-10.436-0.872c-4.131,0.514-7.726,1.628-11.538,3.287
	c-3.252,1.415-6.498,3.285-9.08,5.739c-1.447,1.375-2.808,2.886-3.965,4.514c-0.876,1.233-1.348,2.597-1.375,4.119
	C988.442,1042.989,988.607,1044.779,988.623,1043.481z"/>
<path style="fill:#802624;" d="M1022.486,1139.385c-0.568,0.134-1.135,0.261-1.709,0.368l-1.088,0.169l-1.159,0.063
	c-0.474,0.016-0.95,0.013-1.425,0.002c-0.573-0.013-1.148-0.042-1.719-0.086l-0.847-0.081l-0.834-0.127
	c-0.557-0.102-1.105-0.237-1.66-0.349c-2.082-0.419-4.134-0.82-6.154-1.496c-1.011-0.338-2.014-0.71-3.016-1.074l-0.329-0.125
	c-0.466-0.214-0.93-0.426-1.389-0.655c-1.93-0.964-3.728-2.114-5.493-3.349l-0.076-0.053l-0.05-0.05l-1.117-0.951
	c-0.885-0.773-1.78-1.541-2.627-2.355c-1.486-1.426-2.931-2.835-4.453-4.224c-0.777-0.708-1.456-1.521-2.227-2.231
	c-0.824-0.758-1.263-0.972-1.979-1.31l-0.314-0.532c-1.036-1.396-2.577-2.263-4.357-1.773c-1.533,0.421-2.982,2.054-2.833,3.721
	c0.06,0.677,0.183,1.664,0.21,2.309c-1.008,5.258,3.053,11.373,6.256,14.984c3.392,3.824,8.044,6.917,12.696,9.01
	c4.945,2.225,10.495,3.961,15.993,3.677c5.46-0.282,10.733-1.766,15.666-4.078c2.29-1.074,3.051-4.273,2.105-6.425
	C1027.507,1139.98,1025.043,1138.784,1022.486,1139.385z M1002.527,1136.643"/>
<path style="fill:#802624;" d="M1146.199,935.079c2.969,1.557,5.655,3.495,8.397,5.408l1.016,0.729l0.041,0.031l-0.086-0.077
	l0.132,0.113l-0.046-0.036c0.821,0.741,0.702,0.612,0.423,0.361c0.469,0.388,0.954,0.76,1.411,1.162
	c1.253,1.1,2.449,2.265,3.585,3.486c2.252,2.423,4.255,5.076,6.441,7.56l0.852,0.862l0.635,0.49l0.26,0.315
	c0.382,0.597,0.941,1.151,1.453,1.631c0.569,0.533,1.124,1.08,1.659,1.646c0.862,0.911,1.592,1.391,2.765,1.872
	c1.211,0.496,2.991-0.318,3.566-1.451c0.939-1.85,0.757-3.8,0.569-5.807l-0.652-3.34c0.057,0.879,0.054,1.013-0.01,0.398
	c-0.073-0.6-0.155-1.198-0.244-1.795l-0.397-1.14c-1.701-4.182-4.126-7.632-7.245-10.896c-2.699-2.825-5.755-5.327-8.968-7.545
	c-3.277-2.262-7.148-3.759-10.933-4.948c-2.858-0.898-5.965,0.83-7.081,3.475C1142.634,930.212,1143.54,933.686,1146.199,935.079z"
	/>
<path style="fill:#802624;" d="M832.785,423.446c-13.605,24.473-18.945,54.101-11.878,81.528c0.46,1.785,3.445,1.476,3.293-0.446
	c-1.078-13.578-1.696-27.296,0.344-40.814c2.009-13.308,5.634-26.772,10.45-39.337C835.488,423.087,833.44,422.268,832.785,423.446z
	"/>
</svg>
